PathFileType	4	(X/Y/Z)	C:/Users/opensim2020/Desktop/walking_exp_matlab/subject02_walking11_straight_04.trc	
DataRate	CameraRate	NumFrames	NumMarkers	Units	OrigDataRate	OrigDataStartFrame	OrigNumFrames	
100.00	100.00	6	42	mm	100.00	3368	227	
Frame#	Time	LFHD			RFHD			LBHD			RBHD			C7			T10			CLAV			STRN			RBAK			LSHO			LUPA			LELB			LFRM			LWRA			LWRB			LFIN			RSHO			RUPA			RELB			RFRM			RWRA			RWRB			RFIN			LASI			RASI			LPSI			RPSI			LTHI			LKNE			LTIB			LANK			LHEE			LTOE			RTHI			RKNE			RTIB			RANK			RHEE			RTOE			*39			*40			*41			
		X1	Y1	Z1	X2	Y2	Z2	X3	Y3	Z3	X4	Y4	Z4	X5	Y5	Z5	X6	Y6	Z6	X7	Y7	Z7	X8	Y8	Z8	X9	Y9	Z9	X10	Y10	Z10	X11	Y11	Z11	X12	Y12	Z12	X13	Y13	Z13	X14	Y14	Z14	X15	Y15	Z15	X16	Y16	Z16	X17	Y17	Z17	X18	Y18	Z18	X19	Y19	Z19	X20	Y20	Z20	X21	Y21	Z21	X22	Y22	Z22	X23	Y23	Z23	X24	Y24	Z24	X25	Y25	Z25	X26	Y26	Z26	X27	Y27	Z27	X28	Y28	Z28	X29	Y29	Z29	X30	Y30	Z30	X31	Y31	Z31	X32	Y32	Z32	X33	Y33	Z33	X34	Y34	Z34	X35	Y35	Z35	X36	Y36	Z36	X37	Y37	Z37	X38	Y38	Z38	X39	Y39	Z39	X40	Y40	Z40	X41	Y41	Z41	X42	Y42	Z42	

142	1.410	-1011.44623	-322.97705	1732.64160	-1152.36047	-314.57779	1706.33752	-991.71881	-194.65433	1657.00830	-1131.24695	-173.71727	1629.08105	-1056.35925	-140.93285	1508.64795	-1063.20691	-100.37681	1230.45435	-1046.72095	-284.25403	1447.03979	-1055.31165	-343.76556	1277.74280	-1118.61792	-90.13891	1331.21301	-876.00983	-218.38615	1488.69910	-795.71582	-221.98871	1285.18933	-787.68176	-230.65868	1144.32520	-777.50031	-251.33734	1014.33411	-814.46063	-312.82733	893.45514	-777.62744	-269.94345	892.67157	-774.32617	-294.86172	831.26154	-1244.21729	-216.73033	1474.51819	-1325.07532	-187.99646	1283.50684	-1342.85815	-200.40678	1138.04614	-1364.64319	-228.38332	1021.68750	-1349.58984	-277.57849	894.86371	-1380.40051	-230.39928	892.17792	-1383.89478	-266.44043	828.42316	-932.44153	-335.19333	966.15039	-1182.79736	-352.12906	976.28052	-1017.90997	-130.04482	1014.02191	-1134.81018	-130.86389	1020.13531	-875.47681	-226.46988	657.75830	-893.24017	-172.63261	473.44183	-908.58838	-21.39520	358.68301	-939.13342	104.09716	172.11407	-997.64850	134.97168	174.02518	-931.85376	24.16951	34.61209	-1257.90759	-339.44434	674.79559	-1210.45435	-371.47473	467.41614	-1215.02100	-350.30273	279.02414	-1175.62000	-346.49615	88.48573	-1117.62573	-314.76309	36.74565	-1192.00317	-499.79932	36.87673	-1098.26160	-214.92146	1791.83813						 
143	1.420	-1012.71448	-330.67447	1733.76624	-1153.69873	-322.51898	1707.50378	-992.95941	-202.03922	1658.19238	-1132.65710	-181.79868	1630.36255	-1058.32874	-148.90459	1509.59851	-1065.67957	-108.93547	1231.31580	-1048.19409	-292.30634	1448.38647	-1056.90637	-352.66504	1279.36365	-1119.72998	-99.17523	1331.46509	-877.71844	-225.69315	1489.78845	-797.84052	-228.04276	1286.37512	-790.94867	-234.38637	1145.22595	-779.99432	-251.79482	1015.39868	-816.13892	-309.73657	892.07581	-779.01477	-267.11389	893.18567	-775.94641	-289.77695	830.71484	-1245.79211	-225.15779	1476.01038	-1327.28125	-198.39738	1284.92053	-1345.35632	-212.32243	1139.57910	-1367.46338	-241.91263	1023.67059	-1351.83875	-292.11264	897.24011	-1383.29504	-245.21725	894.28314	-1386.41248	-282.03574	830.72699	-935.39807	-343.35873	967.25049	-1184.99194	-360.59766	977.64880	-1020.26410	-138.21941	1014.90540	-1137.19177	-139.52174	1021.20349	-875.88934	-240.04559	656.99847	-892.65973	-190.77553	473.07059	-908.25494	-39.04665	361.34351	-939.23804	90.18893	178.86247	-998.50476	120.47099	182.09047	-930.81348	18.02751	37.63165	-1259.33911	-343.66379	674.95142	-1211.53601	-374.87048	467.55164	-1216.10730	-352.67886	279.16129	-1175.74329	-346.89398	88.52063	-1117.62988	-314.80563	36.77028	-1192.13452	-499.89737	36.75284	-1099.46973	-222.59137	1792.82751						 
144	1.430	-1013.73547	-338.05017	1735.15759	-1154.98059	-330.41946	1708.75281	-994.52014	-210.16304	1659.39063	-1134.25500	-189.58383	1631.41492	-1060.29541	-156.93413	1510.58118	-1068.03027	-117.26319	1232.27698	-1049.53503	-300.33420	1449.68152	-1058.29688	-360.48029	1280.61853	-1122.61572	-107.46537	1332.58777	-879.37354	-232.83043	1490.83569	-799.70013	-233.53821	1287.47253	-793.87177	-237.77815	1146.39417	-782.24640	-251.96767	1016.43915	-817.91565	-306.80630	890.91260	-780.33026	-264.41843	893.66418	-777.65857	-284.69681	830.27582	-1247.28625	-233.55527	1477.49939	-1329.45178	-208.64682	1286.26367	-1347.90686	-224.17633	1141.05469	-1369.85876	-255.33119	1025.55469	-1354.42676	-307.02911	899.66956	-1385.89819	-260.23978	896.24103	-1388.95862	-297.82840	833.12958	-937.75757	-351.19284	968.33527	-1186.87256	-368.85309	978.67834	-1022.71014	-146.14645	1015.95740	-1139.67529	-148.01726	1022.51404	-876.49243	-253.96745	656.87610	-892.02155	-209.16005	473.01767	-907.71106	-57.09776	363.61923	-940.79901	76.11252	185.62885	-1000.38696	105.41585	189.03909	-927.22064	7.77746	42.44162	-1260.10718	-347.96854	674.72675	-1212.80396	-377.80118	467.60657	-1217.04578	-354.58099	279.30145	-1175.89697	-347.19827	88.64777	-1117.58679	-314.75201	36.76463	-1192.25146	-499.93723	36.65416	-1100.87756	-230.31558	1794.11145						 
145	1.440	-1014.95728	-345.78799	1736.23694	-1156.07471	-338.31119	1710.08118	-995.78564	-217.32468	1660.51367	-1135.63379	-197.60329	1632.57031	-1061.94592	-164.75920	1511.52502	-1070.27844	-125.38285	1233.38342	-1050.70020	-308.50861	1450.99451	-1059.59229	-368.55634	1281.86731	-1125.16638	-115.71408	1333.91309	-880.85730	-239.90216	1491.81726	-801.47137	-239.25594	1288.53613	-796.66510	-241.18204	1147.47095	-784.33624	-252.44777	1017.53259	-819.69110	-304.17206	890.01245	-781.62054	-262.23785	894.51813	-779.13049	-280.14920	830.22675	-1248.78662	-242.38600	1478.84924	-1331.92017	-218.75882	1287.72351	-1350.74487	-235.85896	1142.56946	-1371.94775	-268.60638	1027.45190	-1356.49585	-321.79373	902.18317	-1388.38867	-275.39716	898.22046	-1391.41284	-313.84000	835.42786	-939.22894	-358.86157	969.52930	-1188.45947	-376.91888	979.36176	-1025.23132	-153.90691	1016.96033	-1142.17419	-156.37288	1023.94659	-876.91571	-267.66431	657.48425	-891.74677	-227.49805	473.38916	-907.14929	-75.00479	366.10388	-943.25189	61.23733	191.64973	-1003.54254	89.30781	194.14471	-922.18402	-5.34021	48.24541	-1261.64038	-351.88342	674.48669	-1213.80164	-380.39124	467.54556	-1217.89343	-355.88440	279.36514	-1175.97046	-347.36011	88.72857	-1117.61377	-314.67358	36.80333	-1192.41882	-499.88101	36.57637	-1102.20605	-237.91364	1795.20813						 
146	1.450	-1015.84924	-353.43594	1737.56445	-1157.07910	-346.18176	1711.48486	-997.06781	-224.96924	1661.58618	-1136.90942	-205.62616	1633.70740	-1063.72607	-172.65807	1512.66895	-1072.46985	-133.31807	1234.57031	-1051.69128	-316.55637	1452.27820	-1060.67957	-376.30832	1282.93042	-1126.87000	-124.14754	1334.88538	-882.25574	-246.84518	1492.73889	-803.17010	-244.39087	1289.36487	-799.26013	-244.47758	1148.34937	-786.30750	-253.18565	1018.48328	-821.49518	-302.34155	889.58575	-782.93329	-260.35434	895.22412	-781.18811	-276.00815	829.75592	-1250.35583	-251.53000	1480.13025	-1333.66980	-228.97806	1288.94409	-1353.38562	-247.54283	1144.03320	-1374.86243	-281.97964	1029.36890	-1358.64954	-336.67560	904.91882	-1390.78931	-290.54602	900.21057	-1393.87476	-330.00500	838.38739	-940.27356	-366.08966	970.65741	-1189.77832	-384.94324	979.75842	-1027.87573	-161.46902	1018.03381	-1144.70581	-164.41306	1025.35620	-877.37433	-281.02835	658.59418	-891.67365	-245.74837	474.30246	-907.56177	-92.67397	368.98685	-946.28601	45.42838	196.87683	-1007.59698	72.01727	197.35762	-917.03625	-20.35034	54.83269	-1262.24744	-355.99725	674.56183	-1214.87805	-382.63150	467.31934	-1218.47717	-356.86615	279.33270	-1176.00256	-347.40567	88.74466	-1117.62732	-314.64896	36.81457	-1192.55334	-499.83716	36.56149	-1103.31946	-245.51988	1796.37622						 
147	1.460	-1016.61261	-360.68124	1739.19080	-1157.94519	-354.05295	1712.91174	-998.25879	-232.56180	1662.68433	-1138.18860	-213.52437	1634.78516	-1065.27783	-180.58667	1513.96094	-1074.49402	-141.09618	1235.83875	-1052.70068	-324.50305	1453.45923	-1061.57776	-384.42761	1284.16565	-1129.08008	-132.37228	1336.27527	-883.47937	-253.84338	1493.65540	-804.83923	-249.52092	1290.26636	-801.56042	-247.86649	1149.24585	-788.20386	-253.96130	1019.22736	-823.27820	-299.74509	888.80035	-784.45630	-259.33926	895.73621	-782.98291	-271.91754	829.69702	-1251.58215	-260.51114	1481.40002	-1335.69641	-239.17336	1290.24963	-1355.99780	-259.25473	1145.48743	-1377.29358	-295.33722	1031.23340	-1360.75208	-351.73697	907.67694	-1393.06934	-305.76364	902.22668	-1396.20618	-346.26111	841.22302	-940.89447	-373.11938	971.86462	-1190.97412	-392.84219	979.84387	-1030.50684	-168.87999	1019.07086	-1147.14441	-172.28311	1026.75208	-877.84143	-294.24866	660.01398	-891.91431	-263.73279	475.77646	-909.31464	-110.28239	372.02438	-949.63464	28.55451	201.10211	-1011.70593	53.82494	199.09222	-911.85089	-37.29241	61.23109	-1263.93884	-360.23038	675.14447	-1215.65442	-384.82242	467.15646	-1219.13416	-357.76813	279.22455	-1175.85547	-347.31406	88.54456	-1117.60938	-314.53061	36.76211	-1192.72473	-499.87415	36.52733	-1104.37805	-253.10983	1797.50110						 
